<?xml version="1.0" encoding="utf-8"?>
<!-- Generator: Adobe Illustrator 16.0.3, SVG Export Plug-In . SVG Version: 6.00 Build 0)  -->
<!DOCTYPE svg PUBLIC "-//W3C//DTD SVG 1.1//EN" "http://www.w3.org/Graphics/SVG/1.1/DTD/svg11.dtd">
<svg version="1.1" id="Layer_1" xmlns="http://www.w3.org/2000/svg" xmlns:xlink="http://www.w3.org/1999/xlink" x="0px" y="0px"
	 width="419.53px" height="164.41px" viewBox="0 0 419.53 164.41" style="enable-background:new 0 0 419.53 164.41;"
	 xml:space="preserve">
<g>
	<path style="fill:#39C4E5;" d="M124.758,60.047h-12.826h-7.012H85.446h-7.024H65.615c-7.406,0-13.438,6.045-13.438,13.463
		c0,0.955,0.118,1.939,0.331,2.849l6.791,34.131c1.335,6.141,6.851,10.599,13.119,10.599h14.111v15.496
		c0,1.526,0.981,2.87,2.436,3.334c0.358,0.12,0.72,0.173,1.069,0.173c1.114,0,2.187-0.532,2.859-1.474l12.479-17.529h12.571
		c6.278,0,11.803-4.458,13.141-10.661l6.754-33.949c0.228-1.003,0.356-1.998,0.356-2.968
		C138.195,66.093,132.159,60.047,124.758,60.047z M113.054,103.668H77.33c-2.326,0-4.211-1.886-4.211-4.211s1.885-4.211,4.211-4.211
		h35.724c2.326,0,4.211,1.886,4.211,4.211S115.38,103.668,113.054,103.668z M117.684,86.852H72.686
		c-2.326,0-4.211-1.886-4.211-4.211c0-2.326,1.885-4.211,4.211-4.211h44.998c2.326,0,4.211,1.885,4.211,4.211
		C121.895,84.966,120.01,86.852,117.684,86.852z"/>
	<g>
		<path style="fill:#BAD532;" d="M110.016,52.09c-2.869,0-5.195-2.326-5.195-5.195c0-5.319-4.326-9.646-9.643-9.646
			c-5.318,0-9.644,4.328-9.644,9.646c0,2.869-2.326,5.195-5.195,5.195s-5.195-2.326-5.195-5.195
			c0-11.048,8.987-20.036,20.034-20.036c11.046,0,20.033,8.988,20.033,20.036C115.21,49.765,112.885,52.09,110.016,52.09z"/>
	</g>
	<path style="fill:#FFF;" d="M236.064,85.145c-7.213,0-13.082,5.868-13.082,13.082v2.46c0,7.213,5.869,13.081,13.082,13.081
		s13.082-5.868,13.082-13.081v-2.46C249.146,91.013,243.277,85.145,236.064,85.145 M244.846,100.687c0,4.843-3.938,8.78-8.781,8.78
		s-8.779-3.938-8.779-8.78v-2.46c0-4.842,3.936-8.78,8.779-8.78s8.781,3.938,8.781,8.78V100.687z"/>
	<path style="fill:#FFF;" d="M207.424,85.145c-3.833,0-7.107,1.605-9.51,3.966V73.087c0-1.189-0.964-2.153-2.152-2.153
		c-1.188,0-2.152,0.963-2.152,2.153v38.531c0,1.188,0.965,2.149,2.152,2.149c1.188,0,2.152-0.961,2.152-2.149V98.789
		c0-4.318,4.15-9.343,9.51-9.343c4.801,0,5.518,4.707,5.518,7.515v14.657c0,1.188,0.965,2.149,2.152,2.149s2.15-0.961,2.15-2.149
		V96.961C217.244,89.672,213.48,85.145,207.424,85.145"/>
	<path style="fill:#FFF;" d="M365.201,85.145c-3.379,0-6.877,2.347-9.51,5.495v-3.342c0-1.19-0.961-2.153-2.148-2.153
		c-1.189,0-2.152,0.963-2.152,2.153v24.32c0,1.188,0.963,2.149,2.152,2.149c1.188,0,2.148-0.961,2.148-2.149v-10.932
		c0-4.518,5.688-11.24,9.51-11.24c1.189,0,2.152-0.961,2.152-2.148C367.354,86.107,366.391,85.145,365.201,85.145"/>
	<path style="fill:#FFF;" d="M266.791,85.145c-3.381,0-6.455,1.3-8.777,3.412v-1.259c0-1.19-0.965-2.153-2.152-2.153
		s-2.152,0.963-2.152,2.153v10.929v2.46v25.141c0,1.188,0.965,2.151,2.152,2.151s2.152-0.964,2.152-2.151v-15.47
		c2.322,2.11,5.396,3.41,8.777,3.41c7.213,0,13.084-5.868,13.084-13.081v-2.46C279.875,91.013,274.004,85.145,266.791,85.145
		 M275.572,100.687c0,4.843-3.938,8.78-8.781,8.78c-4.84,0-8.777-3.938-8.777-8.78v-2.46c0-4.842,3.938-8.78,8.777-8.78
		c4.844,0,8.781,3.938,8.781,8.78V100.687z"/>
	<path style="fill:#FFF;" d="M298.473,85.145c-7.211,0-13.08,5.868-13.08,13.082v2.46c0,7.213,5.869,13.081,13.08,13.081
		c4.957,0,8.51-1.702,11.188-5.354c0.701-0.96,0.494-2.306-0.463-3.007c-0.959-0.699-2.305-0.493-3.006,0.463
		c-1.303,1.78-3.242,3.597-7.719,3.597c-4.529,0-8.271-3.45-8.73-7.86h19.664c1.188,0,2.152-0.964,2.152-2.151
		C311.559,91.298,305.934,85.145,298.473,85.145 M289.742,97.304c0.463-4.408,4.201-7.857,8.73-7.857
		c4.438,0,7.813,3.197,8.605,7.857H289.742z"/>
	<path style="fill:#FFF;" d="M331.664,85.145L331.664,85.145c-0.215,0-5.389-0.16-10.213,1.945
		c-1.09,0.477-1.588,1.74-1.113,2.832c0.477,1.086,1.746,1.582,2.832,1.111c3.908-1.706,8.297-1.6,8.418-1.587
		c6.275,0,7.424,2.958,7.424,8.78v0.005c-2.443-1.399-6.158-2.694-11.598-2.694c-6.139,0-10.266,3.587-10.266,8.924
		c0,5.395,4.316,9.307,10.266,9.307c4.111,0,8.479-1.627,11.598-4.285v2.136c0,1.188,0.963,2.149,2.15,2.149
		s2.152-0.961,2.152-2.149v-10.932v-2.46C343.314,94.65,343.314,85.145,331.664,85.145 M327.414,109.467
		c-2.969,0-5.963-1.547-5.963-5.006c0-4.288,4.563-4.621,5.963-4.621c6.535,0,9.805,2.077,11.158,3.288
		C337.07,106.702,331.836,109.467,327.414,109.467"/>
	<path style="fill:#FFF;" d="M176.326,97.031l-0.951-0.267c-1.91-0.545-4.528-1.287-5.103-2.531
		c-0.455-0.982-0.397-2.039,0.159-2.907c0.722-1.135,2.171-1.784,4.094-1.785c0.052-0.012,4.593-0.196,7.013,2.659
		c0.763,0.905,2.124,1.021,3.029,0.252c0.905-0.765,1.021-2.123,0.252-3.028c-3.815-4.514-10.267-4.192-10.408-4.183
		c-3.304,0-6.075,1.374-7.605,3.768c-1.34,2.098-1.503,4.726-0.437,7.03c1.402,3.035,5.119,4.091,7.831,4.861l0.979,0.274
		c1.702,0.47,5.694,1.575,6.444,2.912c0.448,0.794,0.405,1.658-0.126,2.569c-0.83,1.414-2.929,2.844-5.751,2.844
		c-4.813,0-7.204-3.362-7.326-3.535c-0.661-0.983-1.988-1.244-2.974-0.591c-0.989,0.655-1.259,1.992-0.6,2.981
		c0.147,0.222,3.697,5.445,10.899,5.445c3.979,0,7.692-1.953,9.461-4.976c1.303-2.226,1.361-4.721,0.166-6.847
		C183.745,99.082,179.279,97.846,176.326,97.031"/>
</g>
</svg>
