<?xml version="1.0" encoding="utf-8"?>
<!-- Generator: Adobe Illustrator 16.0.3, SVG Export Plug-In . SVG Version: 6.00 Build 0)  -->
<!DOCTYPE svg PUBLIC "-//W3C//DTD SVG 1.1//EN" "http://www.w3.org/Graphics/SVG/1.1/DTD/svg11.dtd">
<svg version="1.1" id="Layer_1" xmlns="http://www.w3.org/2000/svg" xmlns:xlink="http://www.w3.org/1999/xlink" x="0px" y="0px"
	 width="410px" height="145px" viewBox="0 0 410 145" style="enable-background:new 0 0 410 145;" xml:space="preserve">
<g>
	<path style="fill:#39C4E5;" d="M94.413,44.034h-15.8h-8.638h-23.99h-8.654H21.554C12.431,44.034,5,51.508,5,60.68
		c0,1.181,0.146,2.398,0.407,3.522l8.366,42.199c1.645,7.592,8.439,13.104,16.163,13.104h17.384v19.158c0,1.889,1.209,3.549,3,4.122
		c0.441,0.149,0.886,0.214,1.317,0.214c1.373,0,2.693-0.656,3.522-1.821l15.374-21.673H86.02c7.734,0,14.54-5.513,16.188-13.181
		l8.32-41.976c0.281-1.24,0.439-2.471,0.439-3.67C110.968,51.508,103.531,44.034,94.413,44.034z M79.995,97.967H35.986
		c-2.865,0-5.187-2.332-5.187-5.207s2.322-5.206,5.187-5.206h44.009c2.865,0,5.187,2.331,5.187,5.206S82.86,97.967,79.995,97.967z
		 M85.699,77.175H30.264c-2.865,0-5.187-2.332-5.187-5.207c0-2.876,2.322-5.206,5.187-5.206h55.435c2.865,0,5.187,2.33,5.187,5.206
		C90.886,74.843,88.564,77.175,85.699,77.175z"/>
	<g>
		<path style="fill:#BAD532;" d="M76.252,34.196c-3.535,0-6.4-2.875-6.4-6.423c0-6.577-5.33-11.927-11.879-11.927
			c-6.552,0-11.881,5.351-11.881,11.927c0,3.547-2.865,6.423-6.399,6.423c-3.535,0-6.4-2.875-6.4-6.423
			C33.293,14.114,44.364,3,57.973,3c13.608,0,24.679,11.114,24.679,24.773C82.652,31.32,79.787,34.196,76.252,34.196z"/>
	</g>
</g>
<path style="fill:#FEFFFF;" d="M405,75.247c0,0.782-0.301,1.519-0.853,2.072c-0.552,0.563-1.291,0.865-2.071,0.865
	c-0.781,0-1.52-0.301-2.075-0.865c-0.554-0.553-0.853-1.291-0.853-2.072c0-0.793,0.299-1.524,0.853-2.081
	c0.556-0.55,1.294-0.863,2.075-0.863c0.78,0,1.52,0.313,2.071,0.863C404.699,73.722,405,74.454,405,75.247 M404.446,75.247
	c0-1.32-1.063-2.391-2.37-2.391c-1.305,0-2.372,1.071-2.372,2.391c0,1.314,1.067,2.381,2.372,2.381
	C403.383,77.628,404.446,76.561,404.446,75.247 M402.685,75.511l0.463,0.873c0.055,0.166-0.072,0.365-0.259,0.365
	c-0.118,0-0.227-0.069-0.271-0.194l-0.479-0.911h-0.494v0.834c0,0.152-0.124,0.271-0.279,0.271c-0.148,0-0.272-0.119-0.272-0.271
	V73.92c0-0.153,0.124-0.276,0.272-0.276h0.827c0.542,0,0.989,0.449,0.989,1.003C403.182,75.016,402.979,75.342,402.685,75.511
	 M401.645,75.085h0.548c0.232,0,0.436-0.198,0.436-0.438c0-0.247-0.203-0.45-0.436-0.45h-0.548V75.085z"/>
<path style="fill:#FEFFFF;" d="M231.533,75.064c-8.885,0-16.116,7.255-16.116,16.174v3.041c0,8.918,7.231,16.175,16.116,16.175
	c8.886,0,16.116-7.257,16.116-16.175v-3.041C247.649,82.319,240.419,75.064,231.533,75.064 M242.352,94.279
	c0,5.987-4.851,10.855-10.818,10.855c-5.967,0-10.815-4.868-10.815-10.855v-3.041c0-5.984,4.849-10.856,10.815-10.856
	c5.968,0,10.818,4.872,10.818,10.856V94.279z"/>
<path style="fill:#FEFFFF;" d="M196.25,75.064c-4.721,0-8.755,1.985-11.714,4.903V60.156c0-1.471-1.188-2.662-2.651-2.662
	c-1.463,0-2.652,1.191-2.652,2.662v47.641c0,1.468,1.189,2.657,2.652,2.657c1.464,0,2.651-1.189,2.651-2.657V91.933
	c0-5.338,5.113-11.55,11.714-11.55c5.915,0,6.797,5.82,6.797,9.291v18.124c0,1.468,1.189,2.657,2.652,2.657s2.649-1.189,2.649-2.657
	V89.673C208.349,80.662,203.712,75.064,196.25,75.064"/>
<path style="fill:#FEFFFF;" d="M390.619,75.064c-4.162,0-8.471,2.901-11.714,6.794v-4.132c0-1.472-1.186-2.663-2.648-2.663
	c-1.465,0-2.651,1.19-2.651,2.663v30.07c0,1.468,1.187,2.657,2.651,2.657c1.463,0,2.648-1.189,2.648-2.657V94.279
	c0-5.584,7.006-13.897,11.714-13.897c1.465,0,2.651-1.188,2.651-2.656C393.271,76.254,392.084,75.064,390.619,75.064"/>
<path style="fill:#FEFFFF;" d="M269.387,75.064c-4.166,0-7.953,1.607-10.813,4.219v-1.556c0-1.472-1.189-2.663-2.652-2.663
	c-1.462,0-2.651,1.19-2.651,2.663v13.512v3.041v31.085c0,1.469,1.189,2.66,2.651,2.66c1.463,0,2.652-1.191,2.652-2.66v-19.128
	c2.859,2.61,6.646,4.218,10.813,4.218c8.885,0,16.117-7.257,16.117-16.175v-3.041C285.504,82.319,278.271,75.064,269.387,75.064
	 M280.205,94.279c0,5.987-4.852,10.855-10.818,10.855c-5.962,0-10.813-4.868-10.813-10.855v-3.041
	c0-5.984,4.851-10.856,10.813-10.856c5.967,0,10.818,4.872,10.818,10.856V94.279z"/>
<path style="fill:#FEFFFF;" d="M308.415,75.064c-8.884,0-16.114,7.255-16.114,16.174v3.041c0,8.918,7.23,16.175,16.114,16.175
	c6.106,0,10.483-2.105,13.782-6.618c0.863-1.188,0.608-2.854-0.569-3.72c-1.183-0.862-2.84-0.609-3.703,0.572
	c-1.605,2.201-3.995,4.446-9.51,4.446c-5.579,0-10.19-4.264-10.755-9.718h24.225c1.463,0,2.652-1.19,2.652-2.659
	C324.537,82.672,317.606,75.064,308.415,75.064 M297.66,90.098c0.57-5.45,5.176-9.715,10.755-9.715
	c5.467,0,9.625,3.954,10.602,9.715H297.66z"/>
<path style="fill:#FEFFFF;" d="M349.304,75.064L349.304,75.064c-0.265,0-6.639-0.198-12.581,2.405
	c-1.343,0.59-1.956,2.152-1.372,3.501c0.588,1.343,2.151,1.956,3.489,1.375c4.814-2.109,10.221-1.978,10.371-1.962
	c7.73,0,9.146,3.659,9.146,10.856v0.006c-3.011-1.73-7.586-3.332-14.287-3.332c-7.563,0-12.646,4.436-12.646,11.035
	c0,6.669,5.316,11.507,12.646,11.507c5.063,0,10.445-2.012,14.287-5.298v2.641c0,1.468,1.186,2.657,2.648,2.657
	s2.651-1.189,2.651-2.657V94.279v-3.041C363.656,86.816,363.656,75.064,349.304,75.064 M344.069,105.135
	c-3.658,0-7.347-1.911-7.347-6.188c0-5.301,5.621-5.714,7.347-5.714c8.05,0,12.077,2.568,13.745,4.064
	C355.964,101.718,349.517,105.135,344.069,105.135"/>
<path style="fill:#FEFFFF;" d="M157.941,89.761l-1.172-0.33c-2.353-0.674-5.578-1.591-6.286-3.13
	c-0.56-1.214-0.489-2.52,0.196-3.594c0.889-1.403,2.675-2.206,5.043-2.207c0.063-0.014,5.659-0.243,8.64,3.287
	c0.939,1.12,2.617,1.264,3.732,0.313c1.115-0.946,1.257-2.625,0.31-3.745c-4.7-5.581-12.647-5.184-12.822-5.171
	c-4.07,0-7.484,1.699-9.369,4.659c-1.651,2.593-1.853,5.842-0.539,8.691c1.729,3.754,6.307,5.059,9.648,6.012l1.206,0.338
	c2.097,0.582,7.016,1.95,7.939,3.602c0.552,0.982,0.5,2.05-0.155,3.176c-1.023,1.749-3.608,3.518-7.085,3.518
	c-5.928,0-8.875-4.159-9.025-4.371c-0.814-1.216-2.45-1.538-3.663-0.73c-1.219,0.81-1.551,2.463-0.738,3.687
	c0.182,0.272,4.554,6.731,13.426,6.731c4.903,0,9.477-2.415,11.656-6.151c1.605-2.751,1.677-5.836,0.205-8.465
	C167.082,92.297,161.58,90.767,157.941,89.761"/>
</svg>
