<?xml version="1.0" encoding="utf-8"?>
<!-- Generator: Adobe Illustrator 16.0.3, SVG Export Plug-In . SVG Version: 6.00 Build 0)  -->
<!DOCTYPE svg PUBLIC "-//W3C//DTD SVG 1.1//EN" "http://www.w3.org/Graphics/SVG/1.1/DTD/svg11.dtd">
<svg version="1.1" id="Layer_1" xmlns="http://www.w3.org/2000/svg" xmlns:xlink="http://www.w3.org/1999/xlink" x="0px" y="0px"
	 width="431.5px" height="145px" viewBox="0 0 431.5 145" enable-background="new 0 0 431.5 145" xml:space="preserve">
<g>
	<g>
		<path fill="#39C4E5" d="M95.663,43.535h-15.8h-8.638h-23.99h-8.654H22.804c-9.123,0-16.554,7.474-16.554,16.646
			c0,1.181,0.146,2.398,0.407,3.522l8.366,42.198c1.645,7.594,8.439,13.105,16.163,13.105H48.57v19.158c0,1.889,1.209,3.549,3,4.121
			c0.441,0.148,0.886,0.215,1.317,0.215c1.373,0,2.693-0.656,3.522-1.822l15.374-21.672H87.27c7.734,0,14.54-5.514,16.188-13.182
			l8.32-41.976c0.281-1.24,0.439-2.471,0.439-3.67C112.218,51.008,104.781,43.535,95.663,43.535z M81.245,97.467H37.236
			c-2.865,0-5.187-2.332-5.187-5.207s2.322-5.205,5.187-5.205h44.009c2.865,0,5.187,2.33,5.187,5.205S84.11,97.467,81.245,97.467z
			 M86.949,76.676H31.514c-2.865,0-5.187-2.332-5.187-5.208c0-2.876,2.322-5.206,5.187-5.206h55.435c2.865,0,5.187,2.33,5.187,5.206
			C92.136,74.344,89.814,76.676,86.949,76.676z"/>
		<g>
			<path fill="#BAD532" d="M77.502,33.696c-3.535,0-6.4-2.875-6.4-6.423c0-6.577-5.33-11.927-11.879-11.927
				c-6.552,0-11.881,5.351-11.881,11.927c0,3.547-2.865,6.423-6.399,6.423c-3.535,0-6.4-2.875-6.4-6.423
				c0-13.659,11.071-24.773,24.68-24.773c13.608,0,24.679,11.114,24.679,24.773C83.902,30.82,81.037,33.696,77.502,33.696z"/>
		</g>
	</g>
	<path fill="#FEFFFF" d="M425.25,67.204c0,0.896-0.345,1.739-0.977,2.373c-0.633,0.645-1.479,0.99-2.372,0.99
		c-0.895,0-1.741-0.345-2.376-0.99c-0.635-0.634-0.977-1.479-0.977-2.373c0-0.908,0.342-1.746,0.977-2.383
		c0.636-0.63,1.481-0.989,2.376-0.989c0.894,0,1.74,0.359,2.372,0.989C424.905,65.458,425.25,66.296,425.25,67.204 M424.616,67.204
		c0-1.512-1.218-2.738-2.715-2.738c-1.494,0-2.717,1.226-2.717,2.738c0,1.504,1.223,2.727,2.717,2.727
		C423.398,69.931,424.616,68.708,424.616,67.204 M422.599,67.506l0.531,1c0.063,0.189-0.083,0.418-0.298,0.418
		c-0.134,0-0.26-0.079-0.31-0.223l-0.55-1.042h-0.565v0.955c0,0.173-0.141,0.31-0.318,0.31c-0.171,0-0.313-0.137-0.313-0.31v-2.931
		c0-0.174,0.142-0.315,0.313-0.315h0.947c0.62,0,1.132,0.514,1.132,1.147C423.168,66.939,422.935,67.313,422.599,67.506
		 M421.407,67.019h0.629c0.265,0,0.498-0.227,0.498-0.502c0-0.282-0.232-0.514-0.498-0.514h-0.629V67.019z"/>
	<path fill="#FEFFFF" d="M226.59,66.995c-10.176,0-18.457,8.308-18.457,18.522V89c0,10.213,8.281,18.523,18.457,18.523
		S245.046,99.213,245.046,89v-3.482C245.046,75.303,236.766,66.995,226.59,66.995 M238.979,89c0,6.855-5.556,12.432-12.389,12.432
		c-6.835,0-12.386-5.576-12.386-12.432v-3.482c0-6.854,5.554-12.434,12.386-12.434c6.835,0,12.389,5.58,12.389,12.434V89z"/>
	<path fill="#FEFFFF" d="M186.182,66.995c-5.407,0-10.026,2.272-13.415,5.614V49.921c0-1.685-1.361-3.049-3.037-3.049
		c-1.675,0-3.037,1.364-3.037,3.049v54.559c0,1.684,1.362,3.043,3.037,3.043c1.677,0,3.037-1.359,3.037-3.043V86.314
		c0-6.115,5.855-13.229,13.415-13.229c6.774,0,7.784,6.666,7.784,10.641v20.756c0,1.682,1.361,3.043,3.038,3.043
		c1.675,0,3.033-1.361,3.033-3.043V83.725C200.039,73.406,194.728,66.995,186.182,66.995"/>
	<path fill="#FEFFFF" d="M408.78,66.995c-4.767,0-9.7,3.322-13.415,7.78v-4.732c0-1.687-1.358-3.051-3.033-3.051
		c-1.678,0-3.035,1.363-3.035,3.051v34.437c0,1.68,1.359,3.043,3.035,3.043s3.033-1.363,3.033-3.043V89
		c0-6.395,8.023-15.916,13.415-15.916c1.678,0,3.035-1.361,3.035-3.041C411.818,68.357,410.458,66.995,408.78,66.995"/>
	<path fill="#FEFFFF" d="M269.94,66.995c-4.771,0-9.107,1.839-12.383,4.832v-1.783c0-1.686-1.361-3.048-3.037-3.048
		c-1.674,0-3.035,1.362-3.035,3.048V85.52v3.482v35.6c0,1.682,1.361,3.047,3.035,3.047c1.676,0,3.037-1.365,3.037-3.047v-21.908
		c3.275,2.992,7.612,4.832,12.383,4.832c10.176,0,18.458-8.311,18.458-18.523V85.52C288.398,75.303,280.116,66.995,269.94,66.995
		 M282.33,89c0,6.855-5.556,12.432-12.39,12.432c-6.827,0-12.383-5.576-12.383-12.432v-3.482c0-6.854,5.556-12.434,12.383-12.434
		c6.834,0,12.39,5.58,12.39,12.434V89z"/>
	<path fill="#FEFFFF" d="M314.638,66.995c-10.174,0-18.455,8.308-18.455,18.522V89c0,10.213,8.281,18.523,18.455,18.523
		c6.993,0,12.006-2.408,15.784-7.578c0.987-1.359,0.695-3.268-0.652-4.26c-1.354-0.988-3.252-0.699-4.241,0.654
		c-1.838,2.52-4.575,5.092-10.891,5.092c-6.39,0-11.671-4.883-12.317-11.129h27.743c1.676,0,3.038-1.363,3.038-3.045
		C333.102,75.707,325.164,66.995,314.638,66.995 M302.32,84.211c0.653-6.24,5.928-11.125,12.317-11.125
		c6.261,0,11.022,4.527,12.141,11.125H302.32z"/>
	<path fill="#FEFFFF" d="M361.465,66.995L361.465,66.995c-0.304,0-7.604-0.227-14.408,2.753c-1.538,0.676-2.24,2.465-1.571,4.009
		c0.674,1.537,2.464,2.24,3.996,1.574c5.514-2.415,11.705-2.264,11.877-2.246c8.854,0,10.475,4.189,10.475,12.434v0.006
		c-3.449-1.98-8.688-3.816-16.362-3.816c-8.661,0-14.482,5.082-14.482,12.639c0,7.637,6.088,13.178,14.482,13.178
		c5.798,0,11.962-2.305,16.362-6.066v3.023c0,1.682,1.358,3.043,3.032,3.043s3.036-1.361,3.036-3.043V89v-3.482
		C377.901,80.453,377.901,66.995,361.465,66.995 M355.47,101.432c-4.189,0-8.414-2.188-8.414-7.086c0-6.07,6.438-6.545,8.414-6.545
		c9.22,0,13.83,2.941,15.742,4.656C369.092,97.52,361.708,101.432,355.47,101.432"/>
	<path fill="#FEFFFF" d="M142.309,83.826l-1.342-0.377c-2.695-0.773-6.388-1.824-7.199-3.586c-0.642-1.391-0.56-2.885,0.225-4.115
		c1.018-1.607,3.063-2.527,5.775-2.527c0.072-0.016,6.48-0.279,9.895,3.764c1.075,1.283,2.998,1.447,4.274,0.357
		c1.277-1.082,1.44-3.006,0.355-4.287c-5.382-6.393-14.483-5.938-14.684-5.923c-4.661,0-8.571,1.946-10.73,5.336
		c-1.891,2.97-2.122,6.691-0.617,9.955c1.98,4.299,7.223,5.793,11.049,6.885l1.381,0.387c2.402,0.666,8.035,2.232,9.092,4.125
		c0.633,1.125,0.573,2.348-0.177,3.637c-1.171,2.004-4.132,4.029-8.114,4.029c-6.789,0-10.164-4.762-10.335-5.006
		c-0.933-1.393-2.806-1.762-4.195-0.836c-1.396,0.928-1.776,2.82-0.846,4.223c0.209,0.311,5.216,7.709,15.376,7.709
		c5.615,0,10.854-2.766,13.349-7.045c1.838-3.15,1.921-6.684,0.235-9.695C152.778,86.73,146.477,84.979,142.309,83.826"/>
</g>
</svg>
